<svg width="16" height="16" viewBox="0 0 16 16" fill="none" xmlns="http://www.w3.org/2000/svg">
<path d="M3.13511 0C1.41086 0 0 1.41086 0 3.13511V12.8649C0 14.5891 1.41086 16 3.13511 16H12.8649C14.5891 16 16 14.5891 16 12.8649V3.13511C16 1.41086 14.5891 0 12.8649 0H3.13511Z" fill="black"/>
<path d="M7.0078 7.96406C7.24022 7.84715 7.41593 7.71694 7.53634 7.57623C7.75056 7.32281 7.85627 6.98678 7.85627 6.57025C7.85627 6.16492 7.75056 5.81839 7.53914 5.52786C7.18631 5.05463 6.58916 4.81241 5.7449 4.7998H2.40002V11.6275H5.51878C5.87021 11.6275 6.19573 11.5974 6.49676 11.5358C6.79778 11.4734 7.0582 11.3593 7.27872 11.1927C7.47474 11.0478 7.63855 10.8679 7.76876 10.6558C7.97458 10.3352 8.07748 9.97182 8.07748 9.56719C8.07748 9.17516 7.98718 8.84123 7.80796 8.56681C7.62665 8.29239 7.36063 8.09147 7.0078 7.96406ZM3.77984 5.9857H5.28636C5.61749 5.9857 5.89051 6.0214 6.10472 6.09211C6.35254 6.19502 6.47645 6.40433 6.47645 6.72356C6.47645 7.00988 6.38195 7.2101 6.19503 7.32281C6.00672 7.43552 5.7624 7.49222 5.46277 7.49222H3.77984V5.9857ZM6.16213 10.3226C5.99552 10.4031 5.761 10.443 5.46067 10.443H3.77984V8.62212H5.48377C5.7806 8.62422 6.01162 8.66342 6.17683 8.73692C6.47085 8.86994 6.61717 9.11355 6.61717 9.46988C6.61717 9.88992 6.46595 10.1727 6.16213 10.3226Z" fill="#ECE8E2"/>
<path d="M12.5235 5.11816H9.55737V5.96803H12.5235V5.11816Z" fill="#ECE8E2"/>
<path d="M13.5543 8.47219C13.4927 8.07666 13.3568 7.72873 13.1454 7.42841C12.9137 7.08818 12.6197 6.83896 12.262 6.68145C11.9056 6.52324 11.5045 6.44413 11.0579 6.44483C10.3081 6.44483 9.69904 6.67935 9.22791 7.14489C8.75817 7.61182 8.52295 8.28318 8.52295 9.15825C8.52295 10.0914 8.78267 10.7656 9.30491 11.1793C9.82505 11.5937 10.4257 11.8003 11.1076 11.8003C11.9329 11.8003 12.5749 11.5545 13.0334 11.0645C13.3267 10.7551 13.4927 10.4506 13.5291 10.1516H12.1625C12.0834 10.2993 11.9917 10.4149 11.8867 10.4989C11.6963 10.6529 11.4485 10.7299 11.1447 10.7299C10.8555 10.7299 10.6105 10.6662 10.4061 10.5395C10.0687 10.3364 9.89226 9.98082 9.86986 9.47467H13.5991C13.6047 9.03854 13.5907 8.70321 13.5543 8.47219ZM9.90346 8.6031C9.95247 8.27478 10.0715 8.01436 10.2605 7.82184C10.4495 7.63002 10.7169 7.53342 11.0593 7.53272C11.375 7.53272 11.6389 7.62302 11.8538 7.80434C12.0659 7.98705 12.1856 8.25238 12.2101 8.6031H9.90346Z" fill="#ECE8E2"/>
</svg>
