<svg width="36" height="36" viewBox="0 0 36 36" fill="none" xmlns="http://www.w3.org/2000/svg">
<g clip-path="url(#clip0)">
<path fill-rule="evenodd" clip-rule="evenodd" d="M0 17.4192C0.281416 13.0541 3.77377 9.56351 8.1411 9.28223V17.4192H0Z" fill="black"/>
<path fill-rule="evenodd" clip-rule="evenodd" d="M8.1411 26.695C3.7738 26.4137 0.281416 22.9232 0 18.5581H8.1411V26.695Z" fill="black"/>
<path fill-rule="evenodd" clip-rule="evenodd" d="M17.4219 18.5581C17.1403 22.9231 13.648 26.4137 9.2807 26.6949V18.5581H17.4219Z" fill="black"/>
<path fill-rule="evenodd" clip-rule="evenodd" d="M17.4218 17.4191C13.0545 17.1378 9.5621 13.6473 9.2807 9.28223H17.4218V17.4191Z" fill="black"/>
<path fill-rule="evenodd" clip-rule="evenodd" d="M17.46 0C13.0927 0.281285 9.60031 3.77188 9.31885 8.13696H17.46V0Z" fill="black"/>
<path fill-rule="evenodd" clip-rule="evenodd" d="M35.9998 18.5815C35.7184 22.9465 32.226 26.4372 27.8587 26.7184V18.5815H35.9998Z" fill="black"/>
<path fill-rule="evenodd" clip-rule="evenodd" d="M27.8587 9.30518C32.226 9.58646 35.7183 13.077 35.9997 17.4421H27.8587V9.30518Z" fill="black"/>
<path fill-rule="evenodd" clip-rule="evenodd" d="M18.578 17.442C18.8595 13.077 22.3518 9.58646 26.7191 9.30518V17.442H18.578Z" fill="black"/>
<path fill-rule="evenodd" clip-rule="evenodd" d="M18.578 18.5815C22.9453 18.8628 26.4377 22.3534 26.7191 26.7184H18.578V18.5815Z" fill="black"/>
<path fill-rule="evenodd" clip-rule="evenodd" d="M18.5398 35.9998C22.9071 35.7185 26.3995 32.2279 26.6809 27.8628H18.5398V35.9998Z" fill="black"/>
</g>
<defs>
<clipPath id="clip0">
<rect width="36" height="36" fill="white"/>
</clipPath>
</defs>
</svg>
