<svg width="16" height="16" viewBox="0 0 16 16" fill="none" xmlns="http://www.w3.org/2000/svg">
<path d="M3.13511 0C1.41086 0 0 1.41086 0 3.13511V12.8649C0 14.5891 1.41086 16 3.13511 16H12.8649C14.5891 16 16 14.5891 16 12.8649V3.13511C16 1.41086 14.5891 0 12.8649 0H3.13511Z" fill="black"/>
<path d="M8.19632 3.55567C8.16969 3.55557 8.1433 3.5609 8.11867 3.57133C8.09404 3.58176 8.07166 3.5971 8.05279 3.61647C8.03393 3.63583 8.01896 3.65884 8.00875 3.68418C7.99854 3.70951 7.99328 3.73667 7.99328 3.7641C7.99328 3.81957 8.01467 3.87276 8.05275 3.91198C8.09083 3.9512 8.14247 3.97324 8.19632 3.97324C8.69948 3.96335 9.19957 4.05621 9.6677 4.24645C10.1358 4.43669 10.5628 4.72055 10.9238 5.08165C11.6615 5.82059 12.0209 6.81049 12.0344 8.10712C12.0344 8.13459 12.0397 8.16178 12.0499 8.18716C12.0601 8.21253 12.0751 8.23558 12.0939 8.255C12.1128 8.27442 12.1351 8.28983 12.1598 8.30034C12.1844 8.31085 12.2108 8.31626 12.2375 8.31626V8.30998C12.2913 8.30998 12.343 8.28795 12.3811 8.24873C12.4191 8.20951 12.4405 8.15631 12.4405 8.10085C12.4656 7.49107 12.37 6.88241 12.1594 6.31194C11.9488 5.74147 11.6276 5.22112 11.2155 4.78259C10.4101 3.97393 9.39425 3.55567 8.19632 3.55567ZM5.52026 4.03667C5.37633 4.01555 5.22969 4.04502 5.10403 4.12033H5.09591C4.81842 4.28764 4.56259 4.49677 4.31895 4.77561C4.13621 4.99869 4.03401 5.22107 4.00694 5.43718C3.99102 5.56392 4.00257 5.69272 4.04078 5.81431L4.05432 5.82129C4.26293 6.45297 4.53513 7.06045 4.86648 7.63378C5.29598 8.43673 5.82367 9.17964 6.43665 9.84433L6.45695 9.87222L6.48402 9.89313L6.50433 9.91404L6.52463 9.93496C7.17248 10.5679 7.89566 11.1137 8.67685 11.5592C9.57022 12.0612 10.113 12.2982 10.4379 12.3958V12.4027C10.5326 12.4306 10.6193 12.4446 10.7072 12.4446C10.9845 12.4237 11.2471 12.3079 11.4531 12.1155C11.717 11.8715 11.9268 11.6011 12.0825 11.3152V11.3083C12.2382 11.0085 12.184 10.722 11.9607 10.5268C11.5106 10.1212 11.0232 9.76168 10.5056 9.45325C10.1604 9.25806 9.80845 9.37657 9.66633 9.57176L9.36177 9.96842C9.2061 10.1636 8.92185 10.1357 8.92185 10.1357L8.91373 10.1427C6.80212 9.585 6.24038 7.38282 6.24038 7.38282C6.24038 7.38282 6.2133 7.08306 6.40957 6.9297L6.78858 6.616C6.97132 6.46263 7.09991 6.10013 6.90364 5.7446C6.60459 5.21113 6.2555 4.70913 5.86137 4.24581C5.77564 4.13629 5.6546 4.06208 5.52026 4.03667ZM8.54758 4.65711C8.49373 4.65729 8.44216 4.6795 8.40421 4.71885C8.36626 4.7582 8.34504 4.81147 8.34522 4.86694C8.3454 4.9224 8.36696 4.97552 8.40517 5.01461C8.44337 5.0537 8.49508 5.07556 8.54893 5.07537C9.22624 5.08748 9.87123 5.37579 10.3424 5.87706C10.555 6.11862 10.7185 6.40161 10.8231 6.70933C10.9277 7.01705 10.9714 7.34324 10.9516 7.66864C10.9517 7.72398 10.9732 7.777 11.0113 7.81607C11.0493 7.85514 11.1009 7.87708 11.1546 7.87708L11.1614 7.88544C11.1881 7.88544 11.2146 7.88001 11.2392 7.86945C11.2639 7.8589 11.2863 7.84343 11.3052 7.82394C11.324 7.80445 11.339 7.78131 11.3492 7.75586C11.3593 7.7304 11.3645 7.70313 11.3644 7.67561C11.3847 6.84604 11.1343 6.14893 10.6402 5.59124C10.1462 5.03355 9.45584 4.71985 8.57601 4.65711C8.56654 4.65642 8.55704 4.65642 8.54758 4.65711ZM8.87921 5.78573C8.85206 5.78491 8.82501 5.7896 8.79962 5.79954C8.77423 5.80948 8.75099 5.82448 8.73122 5.84367C8.71146 5.86287 8.69556 5.88588 8.68443 5.91141C8.6733 5.93693 8.66716 5.96446 8.66636 5.99243C8.66556 6.02039 8.67011 6.04825 8.67977 6.0744C8.68942 6.10056 8.70398 6.1245 8.72261 6.14486C8.74124 6.16521 8.76359 6.18159 8.78837 6.19306C8.81315 6.20452 8.83988 6.21085 8.86703 6.21167C9.53706 6.24653 9.86192 6.59508 9.90253 7.31311C9.90429 7.36736 9.92645 7.41878 9.96434 7.4565C10.0022 7.49423 10.0529 7.5153 10.1056 7.51527H10.1123C10.1396 7.5144 10.1664 7.50787 10.1912 7.49609C10.216 7.4843 10.2382 7.4675 10.2565 7.44668C10.2748 7.42586 10.2889 7.40145 10.2978 7.3749C10.3068 7.34836 10.3104 7.32023 10.3086 7.2922C10.2612 6.35806 9.76717 5.83453 8.88733 5.78573C8.88463 5.78568 8.88192 5.78568 8.87921 5.78573Z" fill="#ECE8E2"/>
</svg>
