<svg width="16" height="16" viewBox="0 0 16 16" fill="none" xmlns="http://www.w3.org/2000/svg">
<path d="M3.13511 0C1.41086 0 0 1.41086 0 3.13511V12.8649C0 14.5891 1.41086 16 3.13511 16H12.8649C14.5891 16 16 14.5891 16 12.8649V3.13511C16 1.41086 14.5891 0 12.8649 0H3.13511Z" fill="black"/>
<path d="M3.276 7.89652L5.42659 8.6992L6.259 11.3762C6.31226 11.5477 6.52192 11.6111 6.66108 11.4973L7.85985 10.52C7.98551 10.4176 8.16449 10.4125 8.29581 10.5079L10.458 12.0776C10.6068 12.1858 10.8177 12.1043 10.8551 11.9244L12.439 4.3055C12.4797 4.109 12.2867 3.94507 12.0996 4.01744L3.27348 7.42229C3.05567 7.50629 3.05757 7.81467 3.276 7.89652ZM6.12485 8.27191L10.3279 5.68323C10.4034 5.63684 10.4812 5.73898 10.4163 5.79915L6.94755 9.02353C6.82563 9.13703 6.74698 9.28891 6.7247 9.45377L6.60654 10.3294C6.59089 10.4463 6.42666 10.458 6.39439 10.3448L5.93995 8.74801C5.88791 8.56588 5.96375 8.37135 6.12485 8.27191Z" fill="#ECE8E2"/>
</svg>
