<svg width="16" height="16" viewBox="0 0 16 16" fill="none" xmlns="http://www.w3.org/2000/svg">
<path d="M3.13511 0C1.41086 0 0 1.41086 0 3.13511V12.8649C0 14.5891 1.41086 16 3.13511 16H12.8649C14.5891 16 16 14.5891 16 12.8649V3.13511C16 1.41086 14.5891 0 12.8649 0H3.13511ZM4.92989 3.61004H8.08599C8.74146 3.61004 9.23935 3.63402 9.57731 3.68554C9.91526 3.73447 10.2327 3.83937 10.5277 3.999C10.8469 4.17096 11.0867 4.40253 11.2446 4.68941C11.4025 4.97798 11.4826 5.30967 11.4826 5.68679C11.4826 6.12264 11.3738 6.51006 11.1546 6.85014C10.9375 7.19023 10.6363 7.44031 10.2532 7.60205V7.64854C10.8044 7.7656 11.2465 8.00107 11.5781 8.35946C11.9101 8.71826 12.076 9.20124 12.076 9.80777C12.076 10.2517 11.9922 10.6433 11.824 10.9791C11.6559 11.315 11.4308 11.5917 11.1461 11.813C10.8103 12.0769 10.4417 12.2632 10.0378 12.376C9.63639 12.4883 9.12653 12.5444 8.50595 12.5444H4.92991V3.61006L4.92989 3.61004ZM7.16211 5.24783V7.1386H7.44457C7.82764 7.1386 8.09831 7.13467 8.25197 7.12661C8.40563 7.11854 8.56555 7.07738 8.72941 7.00161C8.90733 6.91777 9.03262 6.80135 9.09986 6.65366C9.16753 6.50425 9.20234 6.33173 9.20234 6.13723C9.20234 5.99209 9.16542 5.8443 9.09135 5.69279C9.01771 5.54125 8.90331 5.4305 8.74539 5.36283C8.59812 5.29728 8.42398 5.26273 8.22096 5.25635C8.01837 5.24995 7.71732 5.24785 7.31807 5.24785H7.16209L7.16211 5.24783ZM7.16211 8.66891V10.9056H7.2831C7.86707 10.9056 8.27041 10.9012 8.49344 10.8931C8.71647 10.8851 8.94623 10.8321 9.17736 10.7317C9.38251 10.6436 9.52981 10.5145 9.62431 10.3442C9.71838 10.1744 9.7653 9.98172 9.7653 9.76677C9.7653 9.4901 9.71062 9.27514 9.59781 9.11935C9.48545 8.96186 9.31734 8.84492 9.09388 8.7649C8.95852 8.71169 8.76995 8.68286 8.53244 8.67691C8.29494 8.67095 7.97573 8.66891 7.57607 8.66891H7.16212H7.16211Z" fill="white"/>
</svg>
