<svg width="16" height="16" viewBox="0 0 16 16" fill="none" xmlns="http://www.w3.org/2000/svg">
<path d="M3.13511 0C1.41086 0 0 1.41086 0 3.13511V12.8649C0 14.5891 1.41086 16 3.13511 16H12.8649C14.5891 16 16 14.5891 16 12.8649V3.13511C16 1.41086 14.5891 0 12.8649 0H3.13511Z" fill="black"/>
<g clip-path="url(#clip0)">
<path d="M8.22331 3.53613H8.22098C5.6479 3.53613 3.55548 5.61766 3.55548 8.17723C3.55548 9.19247 3.88448 10.1334 4.4439 10.8975L3.86231 12.6217L5.65606 12.0514C6.39398 12.5375 7.27423 12.8183 8.22331 12.8183C10.7964 12.8183 12.8888 10.7362 12.8888 8.17723C12.8888 5.61824 10.7964 3.53613 8.22331 3.53613ZM10.9387 10.0899C10.8261 10.4061 10.3793 10.6683 10.0229 10.7449C9.77906 10.7965 9.46056 10.8377 8.3884 10.3957C7.01698 9.83062 6.13381 8.44467 6.06498 8.35475C5.99906 8.26483 5.51081 7.62088 5.51081 6.95488C5.51081 6.28888 5.8509 5.96459 5.98798 5.82535C6.10056 5.71107 6.28665 5.65885 6.46515 5.65885C6.5229 5.65885 6.57481 5.66175 6.62148 5.66407C6.75856 5.66988 6.8274 5.678 6.91781 5.89323C7.0304 6.16299 7.30456 6.82899 7.33723 6.89744C7.37048 6.9659 7.40373 7.05872 7.35706 7.14864C7.31331 7.24147 7.27481 7.28266 7.20598 7.36155C7.13715 7.44045 7.07181 7.50079 7.00298 7.58549C6.93998 7.65916 6.86881 7.73806 6.94815 7.8744C7.02748 8.00783 7.30165 8.45279 7.70531 8.81016C8.22623 9.27136 8.64856 9.41872 8.79965 9.48137C8.91223 9.52778 9.0464 9.51676 9.12865 9.42974C9.23306 9.31778 9.36198 9.13213 9.49323 8.94939C9.58656 8.81828 9.7044 8.80203 9.82806 8.84844C9.95406 8.89195 10.6208 9.21973 10.7579 9.28761C10.895 9.35606 10.9854 9.38855 11.0186 9.44599C11.0513 9.50342 11.0513 9.77318 10.9387 10.0899Z" fill="#ECE8E2"/>
</g>
<defs>
<clipPath id="clip0">
<rect width="9.33333" height="9.28219" fill="white" transform="translate(3.55548 3.53613)"/>
</clipPath>
</defs>
</svg>
