<svg width="62" height="62" viewBox="0 0 62 62" fill="none" xmlns="http://www.w3.org/2000/svg">
<path fill-rule="evenodd" clip-rule="evenodd" d="M0.458984 27.5125C0.816595 21.9655 5.25453 17.5298 10.8043 17.1724V27.5125H0.458984Z" fill="#EF7D2A"/>
<path fill-rule="evenodd" clip-rule="evenodd" d="M10.8043 44.383C5.25457 44.0255 0.816595 39.5899 0.458984 34.043H10.8043V44.383Z" fill="#E63D28"/>
<path fill-rule="evenodd" clip-rule="evenodd" d="M27.6794 34.043C27.3217 39.5898 22.8838 44.0255 17.334 44.3829V34.043H27.6794Z" fill="#B72A22"/>
<path fill-rule="evenodd" clip-rule="evenodd" d="M27.6793 27.5124C22.1295 27.155 17.6916 22.7193 17.334 17.1724H27.6793V27.5124Z" fill="#F8AD03"/>
<path fill-rule="evenodd" clip-rule="evenodd" d="M27.7282 0.293945C22.1784 0.65139 17.7405 5.08708 17.3828 10.634H27.7282V0.293945Z" fill="#FECD08"/>
<path fill-rule="evenodd" clip-rule="evenodd" d="M61.4567 34.0723C61.0991 39.6191 56.6612 44.0549 51.1113 44.4123V34.0723H61.4567Z" fill="#E76E28"/>
<path fill-rule="evenodd" clip-rule="evenodd" d="M51.1113 17.2021C56.6611 17.5596 61.099 21.9952 61.4566 27.5422H51.1113V17.2021Z" fill="#FECD08"/>
<path fill-rule="evenodd" clip-rule="evenodd" d="M34.2344 27.5421C34.592 21.9952 39.0299 17.5596 44.5797 17.2021V27.5421H34.2344Z" fill="#E76E28"/>
<path fill-rule="evenodd" clip-rule="evenodd" d="M34.2344 34.0723C39.7841 34.4297 44.2221 38.8654 44.5797 44.4123H34.2344V34.0723Z" fill="#F8AD03"/>
<path fill-rule="evenodd" clip-rule="evenodd" d="M34.1836 61.2898C39.7334 60.9324 44.1714 56.4966 44.529 50.9497H34.1836V61.2898Z" fill="#E63D28"/>
</svg>
