<svg width="84" height="73" viewBox="0 0 84 73" fill="none" xmlns="http://www.w3.org/2000/svg">
<path fill-rule="evenodd" clip-rule="evenodd" d="M5.98633 27.5125C6.34394 21.9655 10.7819 17.5298 16.3317 17.1724V27.5125H5.98633Z" fill="#EF7D2A"/>
<path fill-rule="evenodd" clip-rule="evenodd" d="M11.2497 44.383C5.69988 44.0255 1.26191 39.5899 0.904297 34.043H11.2497V44.383Z" fill="#E63D28"/>
<path fill-rule="evenodd" clip-rule="evenodd" d="M30.3122 34.043C29.9545 39.5898 25.5166 44.0255 19.9668 44.3829V34.043H30.3122Z" fill="#B72A22"/>
<path fill-rule="evenodd" clip-rule="evenodd" d="M48.1032 26.2419C42.5533 25.8844 38.1154 21.4488 37.7578 15.9019H48.1032V26.2419Z" fill="#F8AD03"/>
<path fill-rule="evenodd" clip-rule="evenodd" d="M49.7771 0.293945C44.2272 0.65139 39.7893 5.08708 39.4316 10.634H49.7771V0.293945Z" fill="#FECD08"/>
<path fill-rule="evenodd" clip-rule="evenodd" d="M83.5055 48.0513C83.1479 53.5981 78.71 58.0339 73.1602 58.3913V48.0513H83.5055Z" fill="#E76E28"/>
<path fill-rule="evenodd" clip-rule="evenodd" d="M73.1602 27.3677C78.7099 27.7251 83.1478 32.1608 83.5054 37.7077H73.1602V27.3677Z" fill="#FECD08"/>
<path fill-rule="evenodd" clip-rule="evenodd" d="M56.2793 19.5294C56.637 13.9825 61.0748 9.54689 66.6247 9.18945V19.5294H56.2793Z" fill="#E76E28"/>
<path fill-rule="evenodd" clip-rule="evenodd" d="M61.3652 31.5312C66.915 31.8887 71.353 36.3243 71.7106 41.8713H61.3652V31.5312Z" fill="#F8AD03"/>
<path fill-rule="evenodd" clip-rule="evenodd" d="M51.1504 72.7268C56.7002 72.3694 61.1382 67.9337 61.4958 62.3867H51.1504V72.7268Z" fill="#E63D28"/>
</svg>
