<svg width="64" height="57" viewBox="0 0 64 57" fill="none" xmlns="http://www.w3.org/2000/svg">
<path fill-rule="evenodd" clip-rule="evenodd" d="M5.35547 27.5125C5.71308 21.9655 10.151 17.5298 15.7008 17.1724V27.5125H5.35547Z" fill="#EF7D2A"/>
<path fill-rule="evenodd" clip-rule="evenodd" d="M10.6188 44.383C5.06902 44.0255 0.631048 39.5899 0.273438 34.043H10.6188V44.383Z" fill="#E63D28"/>
<path fill-rule="evenodd" clip-rule="evenodd" d="M29.6814 31.5015C29.3236 37.0483 24.8858 41.484 19.3359 41.8414V31.5015H29.6814Z" fill="#B72A22"/>
<path fill-rule="evenodd" clip-rule="evenodd" d="M28.4098 26.2419C22.86 25.8844 18.422 21.4488 18.0645 15.9019H28.4098V26.2419Z" fill="#F8AD03"/>
<path fill-rule="evenodd" clip-rule="evenodd" d="M30.0896 0.293945C24.5397 0.65139 20.1018 5.08708 19.7441 10.634H30.0896V0.293945Z" fill="#FECD08"/>
<path fill-rule="evenodd" clip-rule="evenodd" d="M61.2711 37.8853C60.9136 43.4321 56.4756 47.8678 50.9258 48.2253V37.8853H61.2711Z" fill="#E76E28"/>
<path fill-rule="evenodd" clip-rule="evenodd" d="M53.4668 17.2021C59.0165 17.5596 63.4545 21.9952 63.8121 27.5422H53.4668V17.2021Z" fill="#FECD08"/>
<path fill-rule="evenodd" clip-rule="evenodd" d="M31.5059 29.6954C31.8635 24.1486 36.3014 19.7129 41.8512 19.3555V29.6954H31.5059Z" fill="#E76E28"/>
<path fill-rule="evenodd" clip-rule="evenodd" d="M35.3203 31.5312C40.8701 31.8887 45.3081 36.3243 45.6657 41.8713H35.3203V31.5312Z" fill="#F8AD03"/>
<path fill-rule="evenodd" clip-rule="evenodd" d="M31.457 56.2073C37.0069 55.8499 41.4448 51.4141 41.8024 45.8672H31.457V56.2073Z" fill="#E63D28"/>
</svg>
