<svg width="71" height="67" viewBox="0 0 71 67" fill="none" xmlns="http://www.w3.org/2000/svg">
<path fill-rule="evenodd" clip-rule="evenodd" d="M5.76367 27.5125C6.12128 21.9655 10.5592 17.5298 16.109 17.1724V27.5125H5.76367Z" fill="#EF7D2A"/>
<path fill-rule="evenodd" clip-rule="evenodd" d="M11.027 44.383C5.47723 44.0255 1.03925 39.5899 0.681641 34.043H11.027V44.383Z" fill="#E63D28"/>
<path fill-rule="evenodd" clip-rule="evenodd" d="M31.7165 44.209C31.3588 49.7558 26.9209 54.1916 21.3711 54.5489V44.209H31.7165Z" fill="#B72A22"/>
<path fill-rule="evenodd" clip-rule="evenodd" d="M29.1735 36.4079C23.6237 36.0505 19.1857 31.6148 18.8281 26.0679H29.1735V36.4079Z" fill="#F8AD03"/>
<path fill-rule="evenodd" clip-rule="evenodd" d="M36.8493 0.293945C31.2995 0.65139 26.8616 5.08708 26.5039 10.634H36.8493V0.293945Z" fill="#FECD08"/>
<path fill-rule="evenodd" clip-rule="evenodd" d="M70.5739 48.0513C70.2163 53.5981 65.7783 58.0339 60.2285 58.3913V48.0513H70.5739Z" fill="#E76E28"/>
<path fill-rule="evenodd" clip-rule="evenodd" d="M60.2285 27.3677C65.7783 27.7251 70.2162 32.1608 70.5738 37.7077H60.2285V27.3677Z" fill="#FECD08"/>
<path fill-rule="evenodd" clip-rule="evenodd" d="M35.7285 37.7076C36.0862 32.1608 40.524 27.7251 46.0739 27.3677V37.7076H35.7285Z" fill="#E76E28"/>
<path fill-rule="evenodd" clip-rule="evenodd" d="M35.7285 41.6973C41.2783 42.0547 45.7163 46.4904 46.0739 52.0373H35.7285V41.6973Z" fill="#F8AD03"/>
<path fill-rule="evenodd" clip-rule="evenodd" d="M38.2188 66.3733C43.7686 66.0159 48.2065 61.5801 48.5641 56.0332H38.2188V66.3733Z" fill="#E63D28"/>
</svg>
