<svg width="67" height="67" viewBox="0 0 67 67" fill="none" xmlns="http://www.w3.org/2000/svg">
<path fill-rule="evenodd" clip-rule="evenodd" d="M5.71289 27.5125C6.0705 21.9655 10.5084 17.5298 16.0583 17.1724V27.5125H5.71289Z" fill="#EF7D2A"/>
<path fill-rule="evenodd" clip-rule="evenodd" d="M10.9762 44.383C5.42645 44.0255 0.98847 39.5899 0.630859 34.043H10.9762V44.383Z" fill="#E63D28"/>
<path fill-rule="evenodd" clip-rule="evenodd" d="M32.9353 44.209C32.5775 49.7558 28.1397 54.1916 22.5898 54.5489V44.209H32.9353Z" fill="#B72A22"/>
<path fill-rule="evenodd" clip-rule="evenodd" d="M32.9352 36.4079C27.3854 36.0505 22.9474 31.6148 22.5898 26.0679H32.9352V36.4079Z" fill="#F8AD03"/>
<path fill-rule="evenodd" clip-rule="evenodd" d="M32.9841 0.293945C27.4343 0.65139 22.9963 5.08708 22.6387 10.634H32.9841V0.293945Z" fill="#FECD08"/>
<path fill-rule="evenodd" clip-rule="evenodd" d="M66.7106 39.1558C66.353 44.7026 61.9151 49.1384 56.3652 49.4958V39.1558H66.7106Z" fill="#E76E28"/>
<path fill-rule="evenodd" clip-rule="evenodd" d="M56.3652 17.2021C61.915 17.5596 66.3529 21.9952 66.7105 27.5422H56.3652V17.2021Z" fill="#FECD08"/>
<path fill-rule="evenodd" clip-rule="evenodd" d="M39.4863 37.7076C39.844 32.1608 44.2819 27.7251 49.8317 27.3677V37.7076H39.4863Z" fill="#E76E28"/>
<path fill-rule="evenodd" clip-rule="evenodd" d="M39.4863 41.6973C45.0361 42.0547 49.4741 46.4904 49.8317 52.0373H39.4863V41.6973Z" fill="#F8AD03"/>
<path fill-rule="evenodd" clip-rule="evenodd" d="M39.4395 66.3733C44.9893 66.0159 49.4272 61.5801 49.7848 56.0332H39.4395V66.3733Z" fill="#E63D28"/>
</svg>
